<mxfile host="app.diagrams.net" modified="2023-07-18T04:38:16.423Z" agent="Mozilla/5.0 (Windows NT 10.0; Win64; x64; rv:109.0) Gecko/20100101 Firefox/115.0" etag="k5jdptMcmqvUTWzR4dqb" version="21.6.2" type="device">
  <diagram name="PÃ¡gina-1" id="zM4AHsppUV11jvB73Zen">
    <mxGraphModel dx="1195" dy="1791" grid="1" gridSize="10" guides="1" tooltips="1" connect="1" arrows="1" fold="1" page="1" pageScale="1" pageWidth="827" pageHeight="1169" math="0" shadow="0">
      <root>
        <mxCell id="0" />
        <mxCell id="1" parent="0" />
        <mxCell id="gv2Mm_Y-joqYlYkA0Ygy-3" style="rounded=0;orthogonalLoop=1;jettySize=auto;html=1;entryX=1;entryY=0.5;entryDx=0;entryDy=0;" edge="1" parent="1" source="gv2Mm_Y-joqYlYkA0Ygy-1" target="gv2Mm_Y-joqYlYkA0Ygy-2">
          <mxGeometry relative="1" as="geometry" />
        </mxCell>
        <mxCell id="gv2Mm_Y-joqYlYkA0Ygy-4" value="&amp;nbsp;haTrabajado&amp;nbsp; " style="edgeLabel;html=1;align=center;verticalAlign=middle;resizable=0;points=[];labelBackgroundColor=#FFFFFF;fontColor=#000000;" vertex="1" connectable="0" parent="gv2Mm_Y-joqYlYkA0Ygy-3">
          <mxGeometry x="-0.0366" relative="1" as="geometry">
            <mxPoint x="-1" as="offset" />
          </mxGeometry>
        </mxCell>
        <mxCell id="gv2Mm_Y-joqYlYkA0Ygy-13" style="edgeStyle=orthogonalEdgeStyle;rounded=0;orthogonalLoop=1;jettySize=auto;html=1;entryX=0.5;entryY=1;entryDx=0;entryDy=0;" edge="1" parent="1" source="gv2Mm_Y-joqYlYkA0Ygy-1" target="gv2Mm_Y-joqYlYkA0Ygy-11">
          <mxGeometry relative="1" as="geometry" />
        </mxCell>
        <mxCell id="gv2Mm_Y-joqYlYkA0Ygy-14" value="&lt;div&gt;&amp;nbsp;tieneRedSocial&amp;nbsp; &lt;br&gt;&lt;/div&gt;" style="edgeLabel;html=1;align=center;verticalAlign=middle;resizable=0;points=[];labelBackgroundColor=#FFFFFF;fontColor=#000000;" vertex="1" connectable="0" parent="gv2Mm_Y-joqYlYkA0Ygy-13">
          <mxGeometry y="-3" relative="1" as="geometry">
            <mxPoint as="offset" />
          </mxGeometry>
        </mxCell>
        <mxCell id="gv2Mm_Y-joqYlYkA0Ygy-30" style="rounded=0;orthogonalLoop=1;jettySize=auto;html=1;exitX=1;exitY=0;exitDx=0;exitDy=0;entryX=0;entryY=1;entryDx=0;entryDy=0;" edge="1" parent="1" source="gv2Mm_Y-joqYlYkA0Ygy-1" target="gv2Mm_Y-joqYlYkA0Ygy-10">
          <mxGeometry relative="1" as="geometry" />
        </mxCell>
        <mxCell id="gv2Mm_Y-joqYlYkA0Ygy-37" value="perteneceAPartidoPolitico" style="edgeLabel;html=1;align=center;verticalAlign=middle;resizable=0;points=[];" vertex="1" connectable="0" parent="gv2Mm_Y-joqYlYkA0Ygy-30">
          <mxGeometry x="-0.2049" y="2" relative="1" as="geometry">
            <mxPoint x="8" y="-5" as="offset" />
          </mxGeometry>
        </mxCell>
        <mxCell id="gv2Mm_Y-joqYlYkA0Ygy-38" style="rounded=0;orthogonalLoop=1;jettySize=auto;html=1;entryX=0;entryY=0;entryDx=0;entryDy=0;" edge="1" parent="1" source="gv2Mm_Y-joqYlYkA0Ygy-1" target="gv2Mm_Y-joqYlYkA0Ygy-8">
          <mxGeometry relative="1" as="geometry" />
        </mxCell>
        <mxCell id="gv2Mm_Y-joqYlYkA0Ygy-48" value="haFinalizado" style="edgeLabel;html=1;align=center;verticalAlign=middle;resizable=0;points=[];" vertex="1" connectable="0" parent="gv2Mm_Y-joqYlYkA0Ygy-38">
          <mxGeometry x="-0.015" y="-2" relative="1" as="geometry">
            <mxPoint x="-1" as="offset" />
          </mxGeometry>
        </mxCell>
        <mxCell id="gv2Mm_Y-joqYlYkA0Ygy-39" style="edgeStyle=orthogonalEdgeStyle;rounded=0;orthogonalLoop=1;jettySize=auto;html=1;entryX=0;entryY=0.5;entryDx=0;entryDy=0;" edge="1" parent="1" source="gv2Mm_Y-joqYlYkA0Ygy-1" target="gv2Mm_Y-joqYlYkA0Ygy-9">
          <mxGeometry relative="1" as="geometry" />
        </mxCell>
        <mxCell id="gv2Mm_Y-joqYlYkA0Ygy-40" value="&lt;div&gt;&amp;nbsp;postuloPorDistrito&amp;nbsp; &lt;br&gt;&lt;/div&gt;" style="edgeLabel;html=1;align=center;verticalAlign=middle;resizable=0;points=[];" vertex="1" connectable="0" parent="gv2Mm_Y-joqYlYkA0Ygy-39">
          <mxGeometry x="-0.1857" y="-1" relative="1" as="geometry">
            <mxPoint x="13" y="-1" as="offset" />
          </mxGeometry>
        </mxCell>
        <mxCell id="gv2Mm_Y-joqYlYkA0Ygy-52" style="rounded=0;orthogonalLoop=1;jettySize=auto;html=1;exitX=0;exitY=1;exitDx=0;exitDy=0;entryX=0.75;entryY=0;entryDx=0;entryDy=0;" edge="1" parent="1" source="gv2Mm_Y-joqYlYkA0Ygy-1" target="gv2Mm_Y-joqYlYkA0Ygy-49">
          <mxGeometry relative="1" as="geometry" />
        </mxCell>
        <mxCell id="gv2Mm_Y-joqYlYkA0Ygy-55" value="nombre" style="edgeLabel;html=1;align=center;verticalAlign=middle;resizable=0;points=[];" vertex="1" connectable="0" parent="gv2Mm_Y-joqYlYkA0Ygy-52">
          <mxGeometry x="-0.0274" y="2" relative="1" as="geometry">
            <mxPoint as="offset" />
          </mxGeometry>
        </mxCell>
        <mxCell id="gv2Mm_Y-joqYlYkA0Ygy-53" style="rounded=0;orthogonalLoop=1;jettySize=auto;html=1;entryX=0.5;entryY=0;entryDx=0;entryDy=0;" edge="1" parent="1" source="gv2Mm_Y-joqYlYkA0Ygy-1" target="gv2Mm_Y-joqYlYkA0Ygy-50">
          <mxGeometry relative="1" as="geometry" />
        </mxCell>
        <mxCell id="gv2Mm_Y-joqYlYkA0Ygy-56" value="edad" style="edgeLabel;html=1;align=center;verticalAlign=middle;resizable=0;points=[];" vertex="1" connectable="0" parent="gv2Mm_Y-joqYlYkA0Ygy-53">
          <mxGeometry x="-0.1758" y="-1" relative="1" as="geometry">
            <mxPoint as="offset" />
          </mxGeometry>
        </mxCell>
        <mxCell id="gv2Mm_Y-joqYlYkA0Ygy-54" style="rounded=0;orthogonalLoop=1;jettySize=auto;html=1;" edge="1" parent="1" source="gv2Mm_Y-joqYlYkA0Ygy-1" target="gv2Mm_Y-joqYlYkA0Ygy-51">
          <mxGeometry relative="1" as="geometry" />
        </mxCell>
        <mxCell id="gv2Mm_Y-joqYlYkA0Ygy-57" value="genero" style="edgeLabel;html=1;align=center;verticalAlign=middle;resizable=0;points=[];" vertex="1" connectable="0" parent="gv2Mm_Y-joqYlYkA0Ygy-54">
          <mxGeometry x="-0.0423" y="1" relative="1" as="geometry">
            <mxPoint as="offset" />
          </mxGeometry>
        </mxCell>
        <mxCell id="gv2Mm_Y-joqYlYkA0Ygy-1" value="&lt;font face=&quot;Verdana&quot;&gt;Person&lt;/font&gt;" style="ellipse;whiteSpace=wrap;html=1;aspect=fixed;fillColor=#0050ef;strokeColor=#000000;fontColor=#ffffff;" vertex="1" parent="1">
          <mxGeometry x="320" y="200" width="80" height="80" as="geometry" />
        </mxCell>
        <mxCell id="gv2Mm_Y-joqYlYkA0Ygy-2" value="&lt;font face=&quot;Verdana&quot;&gt;Cargo&lt;/font&gt;" style="ellipse;whiteSpace=wrap;html=1;aspect=fixed;fillColor=#0050ef;strokeColor=#000000;fontColor=#ffffff;" vertex="1" parent="1">
          <mxGeometry x="130" y="200" width="80" height="80" as="geometry" />
        </mxCell>
        <mxCell id="gv2Mm_Y-joqYlYkA0Ygy-6" style="rounded=0;orthogonalLoop=1;jettySize=auto;html=1;entryX=0;entryY=0;entryDx=0;entryDy=0;" edge="1" parent="1" source="gv2Mm_Y-joqYlYkA0Ygy-5" target="gv2Mm_Y-joqYlYkA0Ygy-1">
          <mxGeometry relative="1" as="geometry" />
        </mxCell>
        <mxCell id="gv2Mm_Y-joqYlYkA0Ygy-7" value="&amp;nbsp;subClassOf&amp;nbsp; " style="edgeLabel;html=1;align=center;verticalAlign=middle;resizable=0;points=[];fontColor=#000000;labelBackgroundColor=#FFFFFF;" vertex="1" connectable="0" parent="gv2Mm_Y-joqYlYkA0Ygy-6">
          <mxGeometry x="-0.1319" y="3" relative="1" as="geometry">
            <mxPoint as="offset" />
          </mxGeometry>
        </mxCell>
        <mxCell id="gv2Mm_Y-joqYlYkA0Ygy-5" value="&lt;font face=&quot;Verdana&quot;&gt;Candidato&lt;/font&gt;" style="ellipse;whiteSpace=wrap;html=1;aspect=fixed;fillColor=#0050ef;strokeColor=#000000;fontColor=#ffffff;" vertex="1" parent="1">
          <mxGeometry x="140" y="90" width="80" height="80" as="geometry" />
        </mxCell>
        <mxCell id="gv2Mm_Y-joqYlYkA0Ygy-8" value="&lt;font face=&quot;Verdana&quot;&gt;Profesion&lt;/font&gt;" style="ellipse;whiteSpace=wrap;html=1;aspect=fixed;fillColor=#0050ef;strokeColor=#000000;fontColor=#ffffff;" vertex="1" parent="1">
          <mxGeometry x="460" y="300" width="80" height="80" as="geometry" />
        </mxCell>
        <mxCell id="gv2Mm_Y-joqYlYkA0Ygy-9" value="&lt;font style=&quot;font-size: 12px;&quot; face=&quot;Verdana&quot;&gt;Distrito&lt;/font&gt;" style="ellipse;whiteSpace=wrap;html=1;aspect=fixed;fillColor=#0050ef;strokeColor=#000000;fontColor=#ffffff;" vertex="1" parent="1">
          <mxGeometry x="540" y="200" width="80" height="80" as="geometry" />
        </mxCell>
        <mxCell id="gv2Mm_Y-joqYlYkA0Ygy-10" value="&lt;font style=&quot;font-size: 10px;&quot; face=&quot;Verdana&quot;&gt;PartidoPolitico&lt;/font&gt;" style="ellipse;whiteSpace=wrap;html=1;aspect=fixed;fillColor=#0050ef;strokeColor=#000000;fontColor=#ffffff;" vertex="1" parent="1">
          <mxGeometry x="460" y="60" width="80" height="80" as="geometry" />
        </mxCell>
        <mxCell id="gv2Mm_Y-joqYlYkA0Ygy-22" style="rounded=0;orthogonalLoop=1;jettySize=auto;html=1;exitX=1;exitY=0;exitDx=0;exitDy=0;entryX=0.25;entryY=1;entryDx=0;entryDy=0;" edge="1" parent="1" source="gv2Mm_Y-joqYlYkA0Ygy-11" target="gv2Mm_Y-joqYlYkA0Ygy-19">
          <mxGeometry relative="1" as="geometry" />
        </mxCell>
        <mxCell id="gv2Mm_Y-joqYlYkA0Ygy-29" value="twitter" style="edgeLabel;html=1;align=center;verticalAlign=middle;resizable=0;points=[];" vertex="1" connectable="0" parent="gv2Mm_Y-joqYlYkA0Ygy-22">
          <mxGeometry x="-0.1442" y="-4" relative="1" as="geometry">
            <mxPoint as="offset" />
          </mxGeometry>
        </mxCell>
        <mxCell id="gv2Mm_Y-joqYlYkA0Ygy-23" style="rounded=0;orthogonalLoop=1;jettySize=auto;html=1;" edge="1" parent="1" source="gv2Mm_Y-joqYlYkA0Ygy-11" target="gv2Mm_Y-joqYlYkA0Ygy-18">
          <mxGeometry relative="1" as="geometry" />
        </mxCell>
        <mxCell id="gv2Mm_Y-joqYlYkA0Ygy-28" value="homepage" style="edgeLabel;html=1;align=center;verticalAlign=middle;resizable=0;points=[];" vertex="1" connectable="0" parent="gv2Mm_Y-joqYlYkA0Ygy-23">
          <mxGeometry x="-0.1239" relative="1" as="geometry">
            <mxPoint as="offset" />
          </mxGeometry>
        </mxCell>
        <mxCell id="gv2Mm_Y-joqYlYkA0Ygy-24" style="rounded=0;orthogonalLoop=1;jettySize=auto;html=1;entryX=0.5;entryY=1;entryDx=0;entryDy=0;" edge="1" parent="1" source="gv2Mm_Y-joqYlYkA0Ygy-11" target="gv2Mm_Y-joqYlYkA0Ygy-17">
          <mxGeometry relative="1" as="geometry" />
        </mxCell>
        <mxCell id="gv2Mm_Y-joqYlYkA0Ygy-27" value="facebook" style="edgeLabel;html=1;align=center;verticalAlign=middle;resizable=0;points=[];" vertex="1" connectable="0" parent="gv2Mm_Y-joqYlYkA0Ygy-24">
          <mxGeometry x="0.0388" y="1" relative="1" as="geometry">
            <mxPoint as="offset" />
          </mxGeometry>
        </mxCell>
        <mxCell id="gv2Mm_Y-joqYlYkA0Ygy-25" style="rounded=0;orthogonalLoop=1;jettySize=auto;html=1;exitX=0;exitY=0;exitDx=0;exitDy=0;entryX=0.75;entryY=1;entryDx=0;entryDy=0;" edge="1" parent="1" source="gv2Mm_Y-joqYlYkA0Ygy-11" target="gv2Mm_Y-joqYlYkA0Ygy-16">
          <mxGeometry relative="1" as="geometry" />
        </mxCell>
        <mxCell id="gv2Mm_Y-joqYlYkA0Ygy-26" value="instagram" style="edgeLabel;html=1;align=center;verticalAlign=middle;resizable=0;points=[];fontColor=#000000;labelBackgroundColor=#FFFFFF;" vertex="1" connectable="0" parent="gv2Mm_Y-joqYlYkA0Ygy-25">
          <mxGeometry x="0.1071" y="-1" relative="1" as="geometry">
            <mxPoint as="offset" />
          </mxGeometry>
        </mxCell>
        <mxCell id="gv2Mm_Y-joqYlYkA0Ygy-11" value="&lt;font face=&quot;Verdana&quot;&gt;RedSocial&lt;/font&gt;" style="ellipse;whiteSpace=wrap;html=1;aspect=fixed;fillColor=#0050ef;strokeColor=#000000;fontColor=#ffffff;" vertex="1" parent="1">
          <mxGeometry x="320" width="80" height="80" as="geometry" />
        </mxCell>
        <mxCell id="gv2Mm_Y-joqYlYkA0Ygy-32" style="rounded=0;orthogonalLoop=1;jettySize=auto;html=1;exitX=0;exitY=1;exitDx=0;exitDy=0;entryX=1;entryY=0;entryDx=0;entryDy=0;" edge="1" parent="1" source="gv2Mm_Y-joqYlYkA0Ygy-12" target="gv2Mm_Y-joqYlYkA0Ygy-10">
          <mxGeometry relative="1" as="geometry" />
        </mxCell>
        <mxCell id="gv2Mm_Y-joqYlYkA0Ygy-36" value="tienePartidoPolitico" style="edgeLabel;html=1;align=center;verticalAlign=middle;resizable=0;points=[];" vertex="1" connectable="0" parent="gv2Mm_Y-joqYlYkA0Ygy-32">
          <mxGeometry x="0.0029" y="1" relative="1" as="geometry">
            <mxPoint x="1" as="offset" />
          </mxGeometry>
        </mxCell>
        <mxCell id="gv2Mm_Y-joqYlYkA0Ygy-34" style="edgeStyle=orthogonalEdgeStyle;rounded=0;orthogonalLoop=1;jettySize=auto;html=1;" edge="1" parent="1" source="gv2Mm_Y-joqYlYkA0Ygy-12" target="gv2Mm_Y-joqYlYkA0Ygy-33">
          <mxGeometry relative="1" as="geometry" />
        </mxCell>
        <mxCell id="gv2Mm_Y-joqYlYkA0Ygy-35" value="&lt;div&gt;nombrePacto&lt;/div&gt;" style="edgeLabel;html=1;align=center;verticalAlign=middle;resizable=0;points=[];" vertex="1" connectable="0" parent="gv2Mm_Y-joqYlYkA0Ygy-34">
          <mxGeometry x="-0.08" y="-2" relative="1" as="geometry">
            <mxPoint as="offset" />
          </mxGeometry>
        </mxCell>
        <mxCell id="gv2Mm_Y-joqYlYkA0Ygy-12" value="&lt;font face=&quot;Verdana&quot;&gt;Pacto&lt;/font&gt;" style="ellipse;whiteSpace=wrap;html=1;aspect=fixed;fillColor=#0050ef;strokeColor=#000000;fontColor=#ffffff;" vertex="1" parent="1">
          <mxGeometry x="570" y="-60" width="80" height="80" as="geometry" />
        </mxCell>
        <mxCell id="gv2Mm_Y-joqYlYkA0Ygy-16" value="String" style="rounded=0;whiteSpace=wrap;html=1;strokeColor=#000000;fillColor=#fdc502;" vertex="1" parent="1">
          <mxGeometry x="230" y="-50" width="70" height="20" as="geometry" />
        </mxCell>
        <mxCell id="gv2Mm_Y-joqYlYkA0Ygy-17" value="String" style="rounded=0;whiteSpace=wrap;html=1;strokeColor=#000000;fillColor=#fdc502;" vertex="1" parent="1">
          <mxGeometry x="280" y="-100" width="70" height="20" as="geometry" />
        </mxCell>
        <mxCell id="gv2Mm_Y-joqYlYkA0Ygy-18" value="String" style="rounded=0;whiteSpace=wrap;html=1;strokeColor=#000000;fillColor=#fdc502;" vertex="1" parent="1">
          <mxGeometry x="370" y="-100" width="70" height="20" as="geometry" />
        </mxCell>
        <mxCell id="gv2Mm_Y-joqYlYkA0Ygy-19" value="String" style="rounded=0;whiteSpace=wrap;html=1;strokeColor=#000000;fillColor=#fdc502;" vertex="1" parent="1">
          <mxGeometry x="420" y="-50" width="70" height="20" as="geometry" />
        </mxCell>
        <mxCell id="gv2Mm_Y-joqYlYkA0Ygy-33" value="String" style="rounded=0;whiteSpace=wrap;html=1;strokeColor=#000000;fillColor=#fdc502;" vertex="1" parent="1">
          <mxGeometry x="575" y="-120" width="70" height="20" as="geometry" />
        </mxCell>
        <mxCell id="gv2Mm_Y-joqYlYkA0Ygy-49" value="String" style="rounded=0;whiteSpace=wrap;html=1;strokeColor=#000000;fillColor=#fdc502;" vertex="1" parent="1">
          <mxGeometry x="190" y="310" width="70" height="20" as="geometry" />
        </mxCell>
        <mxCell id="gv2Mm_Y-joqYlYkA0Ygy-50" value="String" style="rounded=0;whiteSpace=wrap;html=1;strokeColor=#000000;fillColor=#fdc502;" vertex="1" parent="1">
          <mxGeometry x="250" y="360" width="70" height="20" as="geometry" />
        </mxCell>
        <mxCell id="gv2Mm_Y-joqYlYkA0Ygy-51" value="String" style="rounded=0;whiteSpace=wrap;html=1;strokeColor=#000000;fillColor=#fdc502;" vertex="1" parent="1">
          <mxGeometry x="344" y="360" width="70" height="20" as="geometry" />
        </mxCell>
      </root>
    </mxGraphModel>
  </diagram>
</mxfile>
